<?xml version="1.0" encoding="utf-8"?>
<!-- Generator: Adobe Illustrator 23.0.4, SVG Export Plug-In . SVG Version: 6.00 Build 0)  -->
<svg version="1.1" id="圖層_1" xmlns="http://www.w3.org/2000/svg" xmlns:xlink="http://www.w3.org/1999/xlink" x="0px" y="0px"
	 viewBox="0 0 64 64" style="enable-background:new 0 0 64 64;" xml:space="preserve">
<g>
	<path d="M35.2,43.3c-0.1,0-0.1,0-0.1,0.1c-0.2-0.2-0.5-0.4-0.7-0.6c-0.1-0.2-0.2-0.3-0.3-0.5c-0.4-0.9-0.7-1.9-1.1-2.8
		c-0.6-1.5-1.2-3.1-1.8-4.6c0,0,0-0.1-0.1-0.2c0,0.2-0.1,0.3-0.1,0.4c0,0.1,0,0.3-0.1,0.4c-0.2,0.5-0.5,1-0.7,1.6c0,0.1,0,0.2,0,0.3
		c0.1,0.3,0.1,0.7-0.2,0.9c-0.4,0.4-0.5,0.8-0.7,1.3c-0.1,0.2-0.2,0.4-0.4,0.6c-0.1,0.1-0.1,0.2-0.2,0.4c-0.2,0.3-0.2,0.7-0.7,0.8
		c-0.1,0-0.2,0.3-0.2,0.4c0,0.3,0,0.5-0.1,0.7c-0.3,0.3-0.6,0.7-1,0.9c-0.5,0.2-0.9,0.6-0.9,1.2c0,0.1,0,0.1-0.1,0.2
		c-0.1,0.3-0.3,0.6-0.4,0.9c-0.3,0.8-0.5,1.6-0.8,2.4c0,0.2,0,0.3,0,0.5c0,0.6,0,1.2-0.1,1.8c0,0.1,0,0.2,0,0.3c0,0.1,0,0.2,0,0.3
		c0,0.1,0,0.2,0,0.3c0.2,0.4-0.1,0.6-0.3,0.8c-0.2,0.2-0.3,0.4-0.2,0.7c0.1,0.2,0.1,0.3,0.2,0.5c-0.1-0.1-0.2-0.1-0.3-0.2
		c-0.2-0.2-0.5-0.3-0.7-0.5c-0.2-0.1-0.2,0-0.3,0.1c0,0.1-0.1,0.2-0.2,0.3c0,0-0.1,0-0.1,0c0-0.2-0.1-0.4-0.1-0.6c0-0.1,0-0.2,0-0.2
		c-0.4-0.3-0.2-0.8-0.1-1.1c0.2-0.7-0.2-1.3-0.4-1.9c0-0.1-0.1-0.2-0.2-0.3c0-0.5-0.4-0.9-0.7-1.3c-0.2-0.2-0.5-0.4-0.8-0.6
		s-0.6-0.3-0.8-0.5c-0.4-0.3-0.4-0.6-0.2-1c0.1-0.2,0.1-0.4,0.1-0.5c0,0-0.1,0-0.1,0c-0.1,0.4-0.2,0.8-0.4,1.3
		c-0.4-0.2-0.7-0.4-1-0.8c0.1,0,0.1,0,0.2,0.1c0,0,0,0,0,0c-0.1-0.1-0.2-0.2-0.3-0.3c-0.2-0.2-0.5-0.5-0.7-0.8
		c-0.2-0.3,0-0.5,0.1-0.7c-0.1-0.2-0.2-0.5-0.3-0.7c-0.2-0.4-0.4-0.8-0.5-1.1c-0.1-0.5-0.4-1-0.4-1.5c0-0.1-0.1-0.2-0.2-0.3
		c-0.3-0.2-0.6-0.5-0.9-0.7c0.1-0.2,0.2-0.3,0.4-0.5c-0.2,0-0.4,0-0.6,0c0,0.1,0,0.2,0,0.3c-0.3-0.1-0.4-0.5-0.1-0.6
		c0.1-0.1,0.3-0.2,0.5-0.2c-0.2-0.5-0.3-0.9,0.1-1.2c0.1-0.1,0.1-0.3,0.1-0.4c-0.2-0.4,0.2-0.7,0.2-1.1c0-0.1,0.2-0.2,0.3-0.2
		c0,0,0.1,0,0.1,0c0-0.2-0.1-0.4-0.1-0.6c0-0.1,0-0.3,0.1-0.4c0,0-0.1,0-0.1-0.1c0.1-0.1,0.1-0.2,0.1-0.3c0,0,0,0-0.1-0.1
		c-0.1-0.1-0.2-0.1-0.4-0.2c0,0,0-0.2,0-0.2c0.1,0,0.3,0,0.4,0c0.1,0,0.2,0,0.4,0c-0.4-0.2-0.6-0.5-0.6-0.9c0-0.4,0.1-0.8,0.2-1.1
		c0-0.1,0.1-0.2,0.2-0.3c0.1-0.1,0.2-0.2,0-0.5c-0.1-0.1,0-0.4,0-0.6c0-0.4,0.4-0.4,0.6-0.6c0.1-0.1,0.3,0,0.4,0
		c0.6,0.2,1.1,0.2,1.6-0.1c-0.3,0-0.5,0.1-0.8,0.1c-0.3,0.1-0.5-0.1-0.8-0.2c-0.2-0.1-0.2-0.2,0-0.3c0.3-0.1,0.5-0.5,0.5-0.9
		c0-0.2,0.1-0.4,0.2-0.5c0.1-0.2,0.2-0.4,0.4-0.5c0.1-0.1,0.2-0.2,0.2-0.3c0-0.1-0.1-0.2-0.2-0.2c0.1,0,0.2-0.1,0.3-0.1
		c0.3-0.1,0.4-0.2,0.4-0.6c-0.2,0.2-0.3,0.3-0.5,0.5c0,0,0,0-0.1-0.1c0.3-0.6,0.8-0.9,1.3-1.2c-0.1-0.1-0.3-0.1-0.4-0.2
		c0-0.3,0.2-0.2,0.4-0.2c0.1-0.1,0-0.4,0.3-0.5c0.2,0,0-0.2-0.2-0.2c0-0.2,0.1-0.3,0.4-0.2c0-0.3,0.2-0.3,0.4-0.2
		c0.3,0.1,0.6,0.3,1,0.4c-0.4-0.4-0.9-0.5-1.3-0.6c0.1-0.2,0.2-0.4,0.3-0.6c0.1-0.2,0.3-0.1,0.4,0c0.3,0.3,0.7,0.3,1,0.3
		c-0.4-0.2-0.7-0.3-1.1-0.5c-0.2-0.1-0.2-0.2,0-0.3c0.5-0.5,0.8-1.2,1-1.8c0.2-0.4,0.2-0.4,0.6-0.5c-0.2-0.4,0.2-0.7,0.8-0.7
		c0.2-0.3,0.4-0.6,0.6-0.8c0.1-0.1,0.1-0.2,0.1-0.4c0.1-0.4,0.2-0.7,0.3-1c0.3-0.6,0.7-1.3,1-1.9c0.1-0.1,0.2-0.3,0.3-0.4
		c0.3-0.2,0.7-0.3,1.1-0.5c0.2-0.1,0.5-0.2,0.8-0.3c0.3-0.1,0.6-0.2,1-0.3c0.4-0.1,0.7-0.2,1.1-0.4c0.2-0.1,0.3,0,0.4,0.2
		c0.1,0.3,0.2,0.5,0.6,0.6c-0.3-0.4-0.3-0.9-0.9-1c0.4-0.7,0.8-1.3,1.7-1.4c0.4-0.1,0.7,0.1,0.8,0.5c0.1,0.3,0.2,0.5,0.5,0.6
		c0.1,0,0.1,0.1,0.2,0.1c0.2,0.4,0.5,0.6,0.9,0.5c0.1,0,0.2,0,0.2,0.1c0.3,0.3,0.8,0.3,1.2,0.3c0.2,0,0.3,0.1,0.3,0.3
		c0,0.3,0.1,0.6,0.2,0.8c0,0,0.1,0.1,0.2,0.1c0.2,0,0.4,0.1,0.6,0.1c0,0,0,0.1,0,0.1c-0.1,0.1-0.2,0.2-0.3,0.2
		c-0.8,0.3-1.2,1-1.6,1.7c-0.2,0.4-0.2,0.9-0.2,1.4c0.1,0.5,0.1,1.1,0.4,1.6c0.1,0.2,0.1,0.6,0.1,0.9c0,0-0.1,0.1-0.2,0.1
		c-0.2,0.1-0.3,0.3,0,0.5c-0.4,0.3-0.7,0.7-0.7,1.2c0.6-0.2,1.2-0.5,1.9-0.7c0.3-0.1,0.7,0,1.1-0.1c0.4-0.1,0.6,0.1,0.9,0.3
		c0.2,0.1,0.4,0,0.5,0.1c0.4,0.2,0.8,0.4,1.1,0.5c0.1,0,0.2,0.1,0.3,0.1c0.3,0.1,0.6,0.2,0.9,0.4c0.4,0.2,0.8,0.3,1.2,0.5
		c0.4,0.2,0.8,0.4,1.1,0.6c0.1,0.1,0.3,0.1,0.4,0.2c0.2,0.1,0.5,0.3,0.6,0.5c0.4,0.7,0.7,1.5,1,2.2c0.4,1,0.8,2,1.2,3.1
		c0.3,0.7,0.5,1.4,0.8,2.1c0.4,1,0.8,2,1.2,3c0.2,0.5,0.4,1,0.5,1.5c0.1,0.3,0.1,0.7,0,1c0,0.3-0.2,0.5-0.4,0.8
		c-0.1,0.2-0.1,0.4-0.2,0.6c-0.2,0.4-0.5,0.6-0.9,0.8c-0.8,0.6-1.7,0.8-2.5,1.1c-1.8,0.7-3.6,1.4-5.3,2.1c-0.7,0.3-1.3,0.5-2,0.8
		c-0.3,0.1-0.8,0.1-1.1,0.1c-0.4,0.1-0.7-0.2-1.1-0.3C35.5,43.5,35.3,43.5,35.2,43.3z M37.6,28.3c-0.2,0-0.3,0-0.3,0.1
		c-1.2,0.5-2.4,1-3.6,1.4c-0.5,0.2-0.6,0.2-0.9-0.3c-0.1,0-0.1,0-0.2,0.1c-0.1-0.2-0.2-0.4-0.2-0.5c0,0-0.1,0-0.1,0
		c-0.1,0.4-0.2,0.9-0.3,1.3c-0.1,0.4-0.2,0.8-0.3,1.2c0,0.1,0,0.2,0.1,0.3c0.2,0.4,0.3,0.9,0.5,1.3c0.3,0.7,0.5,1.5,0.8,2.2
		c0.4,1,0.8,2,1.2,3c0.4,1.1,0.8,2.2,1.3,3.2c0,0.1,0.1,0.3,0.2,0.4c0.2,0.1,0.4,0.2,0.5,0.3c0.3,0.2,0.8,0.2,1.1,0.1
		c0.7-0.2,1.3-0.5,2-0.7c2-0.8,4-1.5,5.9-2.3c0.7-0.3,1.6-0.4,2.1-1.1c0.2-0.3,0.4-0.7,0.3-1c-0.1-0.5-0.3-0.9-0.5-1.4
		c-0.5-1.4-1.1-2.9-1.7-4.3c-0.6-1.5-1.2-3.1-1.8-4.6c-0.2-0.4-0.7-0.6-1.1-0.5c-1.2,0.4-2.3,0.9-3.4,1.3c-0.1-0.1-0.2-0.2-0.2-0.2
		c-0.3,0.1-0.3-0.1-0.3-0.2c-0.5-1.1-0.8-2.2-1.4-3.2c-0.2-0.3-0.6-0.6-0.9-0.4c-1,0.4-2,0.8-3.1,1.2c-0.2,0.1-0.3,0.1-0.2,0.3
		c0,0.4-0.1,0.7-0.4,1c-0.2,0.2-0.2,0.4-0.1,0.5c0.3,0.4,0.3,0.7-0.1,1c0,0,0,0,0,0c1.3-0.5,2.6-1,3.9-1.5
		C36.8,26.8,37,27.6,37.6,28.3z"/>
	<path d="M39.1,37.2c1.8-0.7,3.6-1.4,5.4-2.1c0.6-0.2,0.6-0.2,0.8,0.3c0.1,0.3,0.2,0.6,0.4,1c-0.6,0.2-1.1,0.5-1.7,0.7
		c-1.4,0.5-2.8,1.1-4.2,1.6c-0.2,0.1-0.3,0-0.3-0.2c-0.1-0.4-0.3-0.7-0.5-1.1C39.1,37.3,39.1,37.2,39.1,37.2z"/>
	<path d="M37.3,32.6c-0.2-0.5-0.4-0.9-0.5-1.4c0,0,0.1-0.2,0.2-0.2c0.9-0.4,1.8-0.7,2.7-1c1-0.4,1.9-0.8,2.9-1.1
		c0.1,0,0.2-0.1,0.3-0.1c0.2,0.4,0.3,0.8,0.5,1.3c0,0.1-0.1,0.3-0.3,0.4c-1.2,0.5-2.3,0.9-3.5,1.3C38.8,32,38.1,32.3,37.3,32.6z"/>
	<path d="M44,31.9c0.2,0.5,0.3,0.9,0.5,1.4c-0.5,0.2-1,0.4-1.5,0.6c-1.3,0.5-2.6,1-3.8,1.5c-0.2,0.1-0.5,0.3-0.7,0.2
		c-0.2,0-0.2-0.4-0.3-0.6c-0.3-0.7-0.3-0.7,0.3-1c1.8-0.7,3.5-1.4,5.2-2.1C43.9,31.9,44,31.9,44,31.9z"/>
	<path d="M36,38.4c0.5-0.2,0.9-0.4,1.4-0.6c0,0,0.2,0.1,0.2,0.2c0.2,0.4,0.3,0.8,0.5,1.1c0.1,0.2,0,0.2-0.1,0.3
		c-0.4,0.2-0.9,0.3-1.4,0.5C36.4,39.4,36.2,38.9,36,38.4z"/>
	<path d="M33.6,32.3c0.5-0.2,0.9-0.3,1.4-0.5c0.2-0.1,0.2,0,0.3,0.1c0.1,0.4,0.3,0.7,0.4,1.1c0.1,0.2,0,0.2-0.1,0.3
		c-0.3,0.1-0.7,0.3-1,0.4c-0.2,0.1-0.4,0-0.5-0.2C33.9,33.1,33.8,32.7,33.6,32.3z"/>
	<path d="M35.4,36.9c-0.2-0.5-0.3-0.9-0.5-1.4c0.5-0.2,1-0.4,1.5-0.6c0.1,0.2,0.2,0.3,0.2,0.5c0.1,0.2,0.1,0.3,0.2,0.5
		c0.2,0.4,0.2,0.4-0.3,0.6C36.2,36.6,35.8,36.7,35.4,36.9z"/>
</g>
</svg>
